<svg width="37" height="33" viewBox="0 0 37 33" fill="none" xmlns="http://www.w3.org/2000/svg">
<path d="M12.8079 0.866577H4.26931C3.08325 0.866577 2.07531 1.28169 1.24501 2.11167C0.415108 2.94181 0 3.94975 0 5.13588V13.6742C0 14.8602 0.414874 15.868 1.24501 16.698C2.07523 17.5279 3.08348 17.9432 4.26931 17.9432H9.25006C9.84281 17.9432 10.3469 18.1508 10.762 18.5658C11.1772 18.9805 11.3846 19.4848 11.3846 20.078V20.7891C11.3846 22.3605 10.8286 23.7017 9.71696 24.8136C8.6052 25.9251 7.26377 26.481 5.6922 26.481H4.26931C3.88364 26.481 3.55023 26.6222 3.26845 26.9037C2.98691 27.1851 2.84602 27.5188 2.84602 27.9042V30.7507C2.84602 31.1355 2.98691 31.4698 3.26845 31.7513C3.55046 32.0327 3.88356 32.174 4.26931 32.174H5.69228C7.2341 32.174 8.70536 31.8734 10.1063 31.2732C11.5071 30.673 12.7189 29.8611 13.7418 28.8383C14.7645 27.8153 15.5761 26.6038 16.1764 25.2028C16.7767 23.802 17.0769 22.3308 17.0769 20.7892V5.13557C17.0769 3.94944 16.6618 2.94157 15.8318 2.11159C15.0018 1.28161 13.9937 0.866577 12.8079 0.866577Z" fill="#F6762C"/>
<path d="M35.7546 2.11155C34.9247 1.28156 33.9167 0.866455 32.7306 0.866455H24.1923C23.0062 0.866455 21.9983 1.28156 21.1683 2.11155C20.3384 2.94176 19.9235 3.94963 19.9235 5.13576V13.6741C19.9235 14.8601 20.3384 15.8679 21.1683 16.6979C21.9983 17.5278 23.0063 17.9431 24.1923 17.9431H29.1731C29.7658 17.9431 30.2703 18.1507 30.6854 18.5656C31.1 18.9806 31.3079 19.4846 31.3079 20.0779V20.789C31.3079 22.3604 30.7519 23.7015 29.64 24.8135C28.5284 25.925 27.1872 26.4809 25.6155 26.4809H24.1923C23.8069 26.4809 23.4732 26.6221 23.1918 26.9036C22.9101 27.185 22.769 27.5187 22.769 27.9041V30.7506C22.769 31.1354 22.9101 31.4697 23.1918 31.7512C23.4731 32.0326 23.8069 32.1739 24.1923 32.1739H25.6155C27.1571 32.1739 28.6283 31.8732 30.0294 31.2731C31.43 30.6729 32.6416 29.861 33.6646 28.8381C34.6874 27.8152 35.4996 26.6033 36.0995 25.2027C36.6997 23.8022 37.0001 22.3307 37.0001 20.7891V5.13545C36.9998 3.94931 36.5851 2.94145 35.7546 2.11155Z" fill="#F6762C"/>
</svg>
